<svg xmlns="http://www.w3.org/2000/svg" viewBox="0 0 980 374"><defs><style>.a{fill:#66a3bb;}.b,.c{fill:#253a47;}.c{fill-rule:evenodd;}</style></defs><rect class="a" width="980" height="374"/><path class="b" d="M371.88,359.48H609.11V14.41H371.88Zm242.62,5.4h-248V9h248Z" transform="translate(-0.5 0.05)"/><path class="b" d="M581.74,258.35v-2.48H580.1v12.7h1.71V262.1c0-3,1.62-4.69,4.28-4.69.12,0,.26,0,.41,0v-1.67C584.15,255.77,582.54,256.66,581.74,258.35Zm-11.3-1.11a4.42,4.42,0,0,1,4.51,4.23h-9A4.42,4.42,0,0,1,570.44,257.24Zm6.15,5c0-3.82-2.58-6.45-6.15-6.45a6.12,6.12,0,0,0-6.21,6.45,6.72,6.72,0,0,0,11.57,4.39l-1-1.11a5,5,0,0,1-3.89,1.67,4.7,4.7,0,0,1-5-4.42h10.63C576.57,262.56,576.59,262.36,576.59,262.22Zm-19.49,6.47c3.31,0,5.24-1.42,5.24-3.62,0-4.88-8.23-2.3-8.23-5.73,0-1.2,1-2.1,3.31-2.1a6.53,6.53,0,0,1,3.74,1.09l.75-1.38a8.64,8.64,0,0,0-4.49-1.18c-3.24,0-5,1.54-5,3.62,0,5,8.24,2.42,8.24,5.73,0,1.25-1,2.07-3.41,2.07a7.64,7.64,0,0,1-4.51-1.42l-.78,1.35A8.52,8.52,0,0,0,557.1,268.69Zm-11.35-10.34v-2.48h-1.64v12.7h1.71V262.1c0-3,1.62-4.69,4.28-4.69.12,0,.26,0,.41,0v-1.67C548.17,255.77,546.55,256.66,545.75,258.35Zm-12,9c-2,0-3.21-.92-3.21-2.39,0-1.31.79-2.27,3.26-2.27h4v2.07A4.06,4.06,0,0,1,533.7,267.34Zm.6-11.57a8.12,8.12,0,0,0-5.17,1.71l.78,1.28a6.5,6.5,0,0,1,4.22-1.49c2.37,0,3.6,1.18,3.6,3.35v.78h-4c-3.65,0-4.9,1.64-4.9,3.6,0,2.19,1.76,3.69,4.63,3.69a4.77,4.77,0,0,0,4.37-2.1v2h1.65V260.7C539.45,257.41,537.59,255.77,534.3,255.77ZM520,267.17a5,5,0,1,1,4.73-4.95A4.65,4.65,0,0,1,520,267.17Zm.12-11.4a5.53,5.53,0,0,0-4.9,2.61v-2.51h-1.65v17.39h1.72v-7.08a5.55,5.55,0,0,0,4.83,2.51,6.46,6.46,0,0,0,0-12.92Zm-16.71,7h6.32v-1.49h-6.32Zm-9-5.53a4.42,4.42,0,0,1,4.51,4.23h-9A4.42,4.42,0,0,1,494.43,257.24Zm6.15,5c0-3.82-2.58-6.45-6.15-6.45a6.12,6.12,0,0,0-6.21,6.45,6.72,6.72,0,0,0,11.57,4.39l-1-1.11a5,5,0,0,1-3.89,1.67,4.71,4.71,0,0,1-5-4.42h10.63C500.56,262.56,500.58,262.36,500.58,262.22Zm-14.83-6.35L481,266.69l-4.76-10.82H474.4l5.63,12.7h1.76l5.66-12.7Zm-15.48,12.7H472v-12.7h-1.72Zm.87-15.48a1.24,1.24,0,0,0,1.26-1.26,1.26,1.26,0,0,0-2.51,0A1.24,1.24,0,0,0,471.14,253.09Zm-4.59,13.48a2.85,2.85,0,0,1-1.88.65,2,2,0,0,1-2.2-2.32v-7.59h3.87v-1.44h-3.87v-2.78h-1.71v2.78h-2.27v1.44h2.27V265a3.36,3.36,0,0,0,3.72,3.69,4.11,4.11,0,0,0,2.68-.89Zm-12.58,2h1.71v-12.7H454Zm.87-15.48a1.23,1.23,0,0,0,1.25-1.26,1.21,1.21,0,0,0-1.25-1.18,1.22,1.22,0,1,0,0,2.44Zm-10.65,2.68a5.54,5.54,0,0,0-5,2.68,4.55,4.55,0,0,0-4.51-2.68,5.13,5.13,0,0,0-4.66,2.41v-2.31h-1.65v12.7h1.72V261.9c0-2.89,1.66-4.59,4.25-4.59,2.32,0,3.67,1.38,3.67,4.06v7.2h1.71V261.9c0-2.89,1.65-4.59,4.26-4.59,2.29,0,3.64,1.38,3.64,4.06v7.2h1.72V261.2C449.31,257.56,447.28,255.77,444.19,255.77Zm-22.34,12.8h1.71v-12.7h-1.71Zm.87-15.48a1.23,1.23,0,0,0,1.25-1.26,1.21,1.21,0,0,0-1.25-1.18,1.22,1.22,0,1,0,0,2.44ZM414,258.35v-2.48h-1.65v12.7h1.72V262.1c0-3,1.62-4.69,4.27-4.69.12,0,.27,0,.41,0v-1.67C416.41,255.77,414.79,256.66,414,258.35Zm-11.6,8.82a5,5,0,1,1,4.74-4.95A4.65,4.65,0,0,1,402.4,267.17Zm.12-11.4a5.53,5.53,0,0,0-4.9,2.61v-2.51H396v17.39h1.71v-7.08a5.56,5.56,0,0,0,4.83,2.51,6.46,6.46,0,0,0,0-12.92Z" transform="translate(-0.5 0.05)"/><path class="c" d="M490.48,174.55a6.6,6.6,0,1,1-6.6,6.6A6.61,6.61,0,0,1,490.48,174.55ZM524.26,64a6.6,6.6,0,1,1-6.6,6.6A6.61,6.61,0,0,1,524.26,64Zm-33.78,5.23a6.61,6.61,0,1,1-6.6,6.61A6.6,6.6,0,0,1,490.48,69.18ZM456.7,64a6.6,6.6,0,1,1-6.6,6.6A6.61,6.61,0,0,1,456.7,64Zm89.2,25v8.47h-12l-31.36,43.06-4.34,26.19H482.79l-4.33-26.19L447.09,97.47h-12V89Z" transform="translate(-0.5 0.05)"/></svg>