<svg xmlns="http://www.w3.org/2000/svg" viewBox="0 0 980 374"><defs><style>.a{fill:#599;}.b,.c{fill:#fff;}.c{fill-rule:evenodd;}</style></defs><rect class="a" width="980" height="374"/><path class="b" d="M382.53,343.31H597.28V31H382.53Zm219.63,4.88H377.65V26.06H602.16Z" transform="translate(0 0)"/><path class="b" d="M572.5,251.77v-2.25H571V261h1.55v-5.86c0-2.71,1.46-4.25,3.87-4.25.11,0,.24,0,.37,0v-1.51C574.69,249.43,573.22,250.24,572.5,251.77Zm-10.23-1a4,4,0,0,1,4.09,3.83H558.2A4,4,0,0,1,562.27,250.76Zm5.58,4.51a5.6,5.6,0,1,0-11.2,0,5.7,5.7,0,0,0,6,5.86,5.63,5.63,0,0,0,4.43-1.89l-.87-1a4.56,4.56,0,0,1-3.52,1.51,4.26,4.26,0,0,1-4.53-4h9.62C567.82,255.57,567.85,255.4,567.85,255.27Zm-17.65,5.86c3,0,4.75-1.29,4.75-3.28,0-4.42-7.46-2.08-7.46-5.19,0-1.09.92-1.9,3-1.9a5.86,5.86,0,0,1,3.38,1l.68-1.25a7.74,7.74,0,0,0-4.06-1.07c-2.93,0-4.55,1.4-4.55,3.28,0,4.55,7.45,2.18,7.45,5.18,0,1.14-.89,1.88-3.08,1.88a7,7,0,0,1-4.09-1.29l-.7,1.22A7.68,7.68,0,0,0,550.2,261.13Zm-10.27-9.36v-2.25h-1.49V261H540v-5.86c0-2.71,1.47-4.25,3.87-4.25.11,0,.24,0,.37,0v-1.51C542.11,249.43,540.65,250.24,539.93,251.77ZM529,259.9c-1.83,0-2.9-.83-2.9-2.16s.72-2.06,2.95-2.06h3.61v1.88A3.7,3.7,0,0,1,529,259.9Zm.55-10.47a7.34,7.34,0,0,0-4.68,1.55l.7,1.16a5.87,5.87,0,0,1,3.83-1.36c2.14,0,3.26,1.07,3.26,3v.7H529c-3.3,0-4.43,1.49-4.43,3.26,0,2,1.59,3.35,4.19,3.35a4.32,4.32,0,0,0,4-1.91V261h1.49v-7.13C534.22,250.91,532.53,249.43,529.56,249.43Zm-13,10.32a4.49,4.49,0,1,1,4.28-4.48A4.22,4.22,0,0,1,516.6,259.75Zm.11-10.32a5,5,0,0,0-4.44,2.36v-2.27h-1.49v15.74h1.55v-6.41a5,5,0,0,0,4.38,2.28,5.85,5.85,0,0,0,0-11.7Zm-15.13,6.34h5.72v-1.36h-5.72Zm-8.12-5a4,4,0,0,1,4.09,3.83H489.4A4,4,0,0,1,493.46,250.76Zm5.58,4.51a5.48,5.48,0,0,0-5.58-5.84,5.54,5.54,0,0,0-5.62,5.84,6.08,6.08,0,0,0,10.48,4l-.88-1a4.55,4.55,0,0,1-3.52,1.51,4.25,4.25,0,0,1-4.52-4H499C499,255.57,499,255.4,499,255.27Zm-13.43-5.75-4.35,9.79-4.3-9.79h-1.62l5.09,11.5H482l5.12-11.5Zm-14,11.5h1.55v-11.5H471.6Zm.79-14a1.11,1.11,0,0,0,1.13-1.14,1.1,1.1,0,0,0-1.13-1.07,1.11,1.11,0,1,0,0,2.21Zm-4.16,12.2a2.57,2.57,0,0,1-1.7.59,1.84,1.84,0,0,1-2-2.1v-6.86H468v-1.31h-3.5V247H463v2.52h-2.06v1.31H463v6.95a3,3,0,0,0,3.36,3.35,3.73,3.73,0,0,0,2.43-.81ZM456.84,261h1.55v-11.5h-1.55Zm.79-14a1.12,1.12,0,0,0,1.14-1.14,1.11,1.11,0,0,0-1.14-1.07,1.11,1.11,0,1,0,0,2.21ZM448,249.43a5,5,0,0,0-4.55,2.42,4.14,4.14,0,0,0-4.09-2.42,4.67,4.67,0,0,0-4.22,2.18v-2.09h-1.49V261h1.56v-6c0-2.62,1.5-4.15,3.84-4.15,2.1,0,3.33,1.24,3.33,3.67V261h1.55v-6c0-2.62,1.49-4.15,3.85-4.15,2.08,0,3.3,1.24,3.3,3.67V261h1.55v-6.67C452.62,251.05,450.79,249.43,448,249.43ZM427.76,261h1.55v-11.5h-1.55Zm.79-14a1.11,1.11,0,1,0,0-2.21,1.11,1.11,0,1,0,0,2.21Zm-7.89,4.77v-2.25h-1.49V261h1.55v-5.86c0-2.71,1.47-4.25,3.87-4.25.11,0,.24,0,.37,0v-1.51C422.84,249.43,421.38,250.24,420.66,251.77Zm-10.5,8a4.49,4.49,0,1,1,4.29-4.48A4.21,4.21,0,0,1,410.16,259.75Zm.11-10.32a5,5,0,0,0-4.44,2.36v-2.27h-1.48v15.74h1.55v-6.41a5,5,0,0,0,4.37,2.28,5.85,5.85,0,0,0,0-11.7Z" transform="translate(0 0)"/><path class="c" d="M489.9,175.91a6,6,0,1,1-6,6A6,6,0,0,1,489.9,175.91ZM520.47,75.79a6,6,0,1,1-6,6A6,6,0,0,1,520.47,75.79ZM489.9,80.52a6,6,0,1,1-6,6A6,6,0,0,1,489.9,80.52Zm-30.58-4.73a6,6,0,1,1-6,6A6,6,0,0,1,459.32,75.79Zm80.74,22.67v7.67H529.17l-28.39,39-3.92,23.7H482.93L479,145.11l-28.39-39H439.73V98.46Z" transform="translate(0 0)"/></svg>